<mxfile host="app.diagrams.net" modified="2023-12-05T12:06:33.844Z" agent="Mozilla/5.0 (Windows NT 10.0; Win64; x64) AppleWebKit/537.36 (KHTML, like Gecko) Chrome/118.0.5993.2470 YaBrowser/23.11.0.2470 Yowser/2.5 Safari/537.36" etag="bgiNs5Fmwvbrj8SW_EXR" version="22.1.5" type="device">
  <diagram name="Страница — 1" id="PcaY27iTRmeM68VzTSL-">
    <mxGraphModel dx="832" dy="517" grid="1" gridSize="10" guides="1" tooltips="1" connect="1" arrows="1" fold="1" page="1" pageScale="1" pageWidth="827" pageHeight="1169" math="0" shadow="0">
      <root>
        <mxCell id="0" />
        <mxCell id="1" parent="0" />
        <mxCell id="Dm_8WElvDobPEIF0tm5e-1" value="" style="swimlane;horizontal=0;whiteSpace=wrap;html=1;" parent="1" vertex="1">
          <mxGeometry x="190" y="692" width="200" height="98" as="geometry" />
        </mxCell>
        <mxCell id="Dm_8WElvDobPEIF0tm5e-2" value="Формирование отчёта об окончании тренировки" style="text;html=1;strokeColor=none;fillColor=none;align=center;verticalAlign=middle;whiteSpace=wrap;rounded=0;fontStyle=1;fontSize=14;" parent="Dm_8WElvDobPEIF0tm5e-1" vertex="1">
          <mxGeometry x="80" y="30" width="60" height="30" as="geometry" />
        </mxCell>
        <mxCell id="Dm_8WElvDobPEIF0tm5e-3" value="" style="swimlane;horizontal=0;whiteSpace=wrap;html=1;" parent="1" vertex="1">
          <mxGeometry x="560" y="373" width="220" height="120" as="geometry" />
        </mxCell>
        <mxCell id="Dm_8WElvDobPEIF0tm5e-4" value="Запись должна содержать дату и время окончания тренировки, причину окончания(если таковая имеется" style="text;html=1;strokeColor=none;fillColor=none;align=center;verticalAlign=middle;whiteSpace=wrap;rounded=0;fontStyle=1;fontSize=14;" parent="Dm_8WElvDobPEIF0tm5e-3" vertex="1">
          <mxGeometry x="30" y="40" width="190" height="30" as="geometry" />
        </mxCell>
        <mxCell id="Dm_8WElvDobPEIF0tm5e-5" value="" style="swimlane;horizontal=0;whiteSpace=wrap;html=1;" parent="1" vertex="1">
          <mxGeometry x="190" y="210" width="200" height="120" as="geometry" />
        </mxCell>
        <mxCell id="Dm_8WElvDobPEIF0tm5e-6" value="Регистрация спортсмена в электронной системе" style="text;html=1;strokeColor=none;fillColor=none;align=center;verticalAlign=middle;whiteSpace=wrap;rounded=0;fontSize=14;fontStyle=1" parent="Dm_8WElvDobPEIF0tm5e-5" vertex="1">
          <mxGeometry x="60" y="40" width="100" height="30" as="geometry" />
        </mxCell>
        <mxCell id="Dm_8WElvDobPEIF0tm5e-7" value="" style="swimlane;horizontal=0;whiteSpace=wrap;html=1;" parent="1" vertex="1">
          <mxGeometry x="560" y="533" width="220" height="120" as="geometry" />
        </mxCell>
        <mxCell id="Dm_8WElvDobPEIF0tm5e-8" value="Результат должен содержать количество устранений, поражений, захвата точек, количество попаданий" style="text;html=1;strokeColor=none;fillColor=none;align=center;verticalAlign=middle;whiteSpace=wrap;rounded=0;fontSize=14;fontStyle=1" parent="Dm_8WElvDobPEIF0tm5e-7" vertex="1">
          <mxGeometry x="30" y="37" width="190" height="30" as="geometry" />
        </mxCell>
        <mxCell id="Dm_8WElvDobPEIF0tm5e-9" value="" style="swimlane;horizontal=0;whiteSpace=wrap;html=1;" parent="1" vertex="1">
          <mxGeometry x="560" y="210" width="220" height="120" as="geometry" />
        </mxCell>
        <mxCell id="Dm_8WElvDobPEIF0tm5e-10" value="Должно содержать команду спортсмена, название тагера" style="text;html=1;strokeColor=none;fillColor=none;align=center;verticalAlign=middle;whiteSpace=wrap;rounded=0;fontStyle=1;fontSize=14;" parent="Dm_8WElvDobPEIF0tm5e-9" vertex="1">
          <mxGeometry x="40" y="40" width="160" height="30" as="geometry" />
        </mxCell>
        <mxCell id="Dm_8WElvDobPEIF0tm5e-11" value="" style="swimlane;horizontal=0;whiteSpace=wrap;html=1;fontStyle=1" parent="1" vertex="1">
          <mxGeometry x="190" y="373" width="200" height="77" as="geometry" />
        </mxCell>
        <mxCell id="Dm_8WElvDobPEIF0tm5e-12" value="Запись об окончании тренировки" style="text;html=1;strokeColor=none;fillColor=none;align=center;verticalAlign=middle;whiteSpace=wrap;rounded=0;fontStyle=1;fontSize=15;" parent="Dm_8WElvDobPEIF0tm5e-11" vertex="1">
          <mxGeometry x="70" y="23.5" width="90" height="30" as="geometry" />
        </mxCell>
        <mxCell id="Dm_8WElvDobPEIF0tm5e-13" value="" style="swimlane;horizontal=0;whiteSpace=wrap;html=1;" parent="1" vertex="1">
          <mxGeometry x="190" y="533" width="200" height="120" as="geometry" />
        </mxCell>
        <mxCell id="Dm_8WElvDobPEIF0tm5e-14" value="Занесение результатов в общую таблицу результатов" style="text;html=1;strokeColor=none;fillColor=none;align=center;verticalAlign=middle;whiteSpace=wrap;rounded=0;fontStyle=1;fontSize=14;" parent="Dm_8WElvDobPEIF0tm5e-13" vertex="1">
          <mxGeometry x="80" y="30" width="60" height="30" as="geometry" />
        </mxCell>
        <mxCell id="Dm_8WElvDobPEIF0tm5e-23" style="rounded=0;orthogonalLoop=1;jettySize=auto;html=1;entryX=1;entryY=0.5;entryDx=0;entryDy=0;endArrow=open;endFill=0;dashed=1;" parent="1" source="Dm_8WElvDobPEIF0tm5e-15" target="Dm_8WElvDobPEIF0tm5e-1" edge="1">
          <mxGeometry relative="1" as="geometry" />
        </mxCell>
        <mxCell id="Dm_8WElvDobPEIF0tm5e-26" value="&quot;trace&quot;" style="edgeLabel;html=1;align=center;verticalAlign=middle;resizable=0;points=[];" parent="Dm_8WElvDobPEIF0tm5e-23" vertex="1" connectable="0">
          <mxGeometry x="-0.4941" y="2" relative="1" as="geometry">
            <mxPoint x="-37" y="6" as="offset" />
          </mxGeometry>
        </mxCell>
        <mxCell id="Dm_8WElvDobPEIF0tm5e-15" value="" style="swimlane;horizontal=0;whiteSpace=wrap;html=1;" parent="1" vertex="1">
          <mxGeometry x="560" y="692" width="220" height="120" as="geometry" />
        </mxCell>
        <mxCell id="Dm_8WElvDobPEIF0tm5e-16" value="Отчёт должен соответствовать стандартам оформления отчёта окончанных тренировок" style="text;html=1;strokeColor=none;fillColor=none;align=center;verticalAlign=middle;whiteSpace=wrap;rounded=0;fontStyle=1;fontSize=14;" parent="Dm_8WElvDobPEIF0tm5e-15" vertex="1">
          <mxGeometry x="30" y="42.5" width="160" height="35" as="geometry" />
        </mxCell>
        <mxCell id="Dm_8WElvDobPEIF0tm5e-19" value="(from Автоматизируемые элементы БП)" style="text;html=1;align=center;verticalAlign=middle;resizable=0;points=[];autosize=1;strokeColor=none;fillColor=none;fontStyle=3;fontSize=14;" parent="1" vertex="1">
          <mxGeometry x="145" y="330" width="320" height="30" as="geometry" />
        </mxCell>
        <mxCell id="Dm_8WElvDobPEIF0tm5e-20" value="&lt;span style=&quot;font-size: 14px;&quot;&gt;(from Автоматизируемые элементы БП)&lt;/span&gt;" style="text;html=1;align=center;verticalAlign=middle;resizable=0;points=[];autosize=1;strokeColor=none;fillColor=none;fontStyle=3;fontSize=14;" parent="1" vertex="1">
          <mxGeometry x="135" y="463" width="320" height="30" as="geometry" />
        </mxCell>
        <mxCell id="Dm_8WElvDobPEIF0tm5e-21" value="(from Автоматизируемые элементы БП)" style="text;html=1;align=center;verticalAlign=middle;resizable=0;points=[];autosize=1;strokeColor=none;fillColor=none;fontStyle=3;fontSize=14;" parent="1" vertex="1">
          <mxGeometry x="130" y="653" width="320" height="30" as="geometry" />
        </mxCell>
        <mxCell id="Dm_8WElvDobPEIF0tm5e-22" value="(from Автоматизируемые элементы БП)" style="text;html=1;align=center;verticalAlign=middle;resizable=0;points=[];autosize=1;strokeColor=none;fillColor=none;fontStyle=3;fontSize=14;" parent="1" vertex="1">
          <mxGeometry x="135" y="800" width="320" height="30" as="geometry" />
        </mxCell>
        <mxCell id="Dm_8WElvDobPEIF0tm5e-27" style="edgeStyle=orthogonalEdgeStyle;rounded=0;orthogonalLoop=1;jettySize=auto;html=1;entryX=1;entryY=0.5;entryDx=0;entryDy=0;endArrow=open;endFill=0;dashed=1;" parent="1" edge="1">
          <mxGeometry relative="1" as="geometry">
            <mxPoint x="560" y="600" as="sourcePoint" />
            <mxPoint x="390" y="600" as="targetPoint" />
          </mxGeometry>
        </mxCell>
        <mxCell id="Dm_8WElvDobPEIF0tm5e-28" value="&quot;trace&quot;" style="edgeLabel;html=1;align=center;verticalAlign=middle;resizable=0;points=[];" parent="Dm_8WElvDobPEIF0tm5e-27" vertex="1" connectable="0">
          <mxGeometry x="-0.4941" y="2" relative="1" as="geometry">
            <mxPoint x="-37" y="6" as="offset" />
          </mxGeometry>
        </mxCell>
        <mxCell id="Dm_8WElvDobPEIF0tm5e-31" style="edgeStyle=orthogonalEdgeStyle;rounded=0;orthogonalLoop=1;jettySize=auto;html=1;entryX=1;entryY=0.5;entryDx=0;entryDy=0;endArrow=open;endFill=0;dashed=1;" parent="1" edge="1">
          <mxGeometry relative="1" as="geometry">
            <mxPoint x="560" y="432.5" as="sourcePoint" />
            <mxPoint x="390" y="432.5" as="targetPoint" />
          </mxGeometry>
        </mxCell>
        <mxCell id="Dm_8WElvDobPEIF0tm5e-32" value="&quot;trace&quot;" style="edgeLabel;html=1;align=center;verticalAlign=middle;resizable=0;points=[];" parent="Dm_8WElvDobPEIF0tm5e-31" vertex="1" connectable="0">
          <mxGeometry x="-0.4941" y="2" relative="1" as="geometry">
            <mxPoint x="-37" y="6" as="offset" />
          </mxGeometry>
        </mxCell>
        <mxCell id="Dm_8WElvDobPEIF0tm5e-33" style="edgeStyle=orthogonalEdgeStyle;rounded=0;orthogonalLoop=1;jettySize=auto;html=1;entryX=1;entryY=0.5;entryDx=0;entryDy=0;endArrow=open;endFill=0;dashed=1;" parent="1" edge="1">
          <mxGeometry relative="1" as="geometry">
            <mxPoint x="560" y="269.5" as="sourcePoint" />
            <mxPoint x="390" y="269.5" as="targetPoint" />
          </mxGeometry>
        </mxCell>
        <mxCell id="Dm_8WElvDobPEIF0tm5e-34" value="&quot;trace&quot;" style="edgeLabel;html=1;align=center;verticalAlign=middle;resizable=0;points=[];" parent="Dm_8WElvDobPEIF0tm5e-33" vertex="1" connectable="0">
          <mxGeometry x="-0.4941" y="2" relative="1" as="geometry">
            <mxPoint x="-37" y="6" as="offset" />
          </mxGeometry>
        </mxCell>
      </root>
    </mxGraphModel>
  </diagram>
</mxfile>
